# xmcd
#
# Track frame offsets:
#	150
#	11030
#	25387
#	39182
#	54230
#	67940
#	111480
#	125520
#	138735
#	149937
#	164485
#	177530
#	189795
#	203830
#	228405
#	249085
#	275615
#	300180
#
# Disc length: 4343 seconds
#
# Revision: 2
# Processed by: cddbd v1.5.2PL0 Copyright (c) Steve Scherf et al.
# Submitted via: audiograbber 1.82.02
#
DISCID=0110f512
DTITLE=Various Artist - The Blues Guitar Classics
DYEAR=1997
DGENRE=Blues
TTITLE0=T-Bone Walker - Hey Hey Baby
TTITLE1=Pee Wee Crayton - The Telephone is Ringing
TTITLE2=Guitar Slim - The Things That I Used to Do
TTITLE3=Elmore James - Wild About You
TTITLE4=B.B. King - Sweet Litlle Angel
TTITLE5=Bobby "Blue" Bland - The Feeling is Gone/Stomy Monday/Driftin' Blues
TTITLE6=Don and Dewey - Kill Me
TTITLE7=Tarheel Slim - Number 9 Train
TTITLE8=Wilbert Harrison - Kansas City
TTITLE9=Ike Turner - Cuban Gateway
TTITLE10=John Lee Hooker - 21 Boogie
TTITLE11=Lightnin' Hopkins - Lonesome Dog Blues
TTITLE12=Frankkie Lee Sims - Marries Woman
TTITLE13=Mississippi Fred McDowell - Write Me a Few of Your Line
TTITLE14=Jelly Roll King - That's Alright Mama
TTITLE15=Magic Sam - Lookin' Good
TTITLE16=Otis Rush - Right Place Wrong Time
TTITLE17=Albert King - I'll Be Doggone
EXTD=
EXTT0=
EXTT1=
EXTT2=
EXTT3=
EXTT4=
EXTT5=
EXTT6=
EXTT7=
EXTT8=
EXTT9=
EXTT10=
EXTT11=
EXTT12=
EXTT13=
EXTT14=
EXTT15=
EXTT16=
EXTT17=
PLAYORDER=
